<svg xmlns="http://www.w3.org/2000/svg" width="560" height="160" viewBox="0 0 560 160"><rect width="560" height="160" fill="#faf9f5"/><g transform="translate(0,0)"><path d="M70.25,20.821L70.25,20.821ZM80.828,23.624L79.189,24.509L78.132,24.894L75.635,25.513L74.237,25.735L71.265,25.986L69.742,26.009L66.748,25.847L63.995,25.417L62.767,25.11L60.713,24.34L59.922,23.89L59.307,23.407L58.879,22.901L58.646,22.38L58.611,21.853L58.776,21.331L59.138,20.822L59.69,20.335L60.423,19.879L62.379,19.089L63.569,18.769L66.267,18.302L69.235,18.089L72.271,18.139L75.17,18.446L77.736,18.988L79.795,19.73L80.588,20.161L81.206,20.624L81.636,21.111L81.871,21.614L81.907,22.126L81.742,22.637L81.381,23.139ZM90.979,28.666L89.537,29.568L87.762,30.406L85.686,31.167L83.346,31.834L80.783,32.396L78.045,32.841L75.178,33.161L72.233,33.348L69.258,33.399L66.305,33.312L63.422,33.088L60.656,32.73L58.053,32.244L55.657,31.638L53.506,30.923L51.638,30.112L50.085,29.219L48.873,28.262L48.026,27.257L47.559,26.223L47.482,25.181L47.797,24.148L48.5,23.145L49.58,22.19L51.016,21.3L52.785,20.49L54.853,19.774L57.185,19.163L59.739,18.666L62.469,18.29L65.329,18.038L68.269,17.914L71.24,17.916L74.192,18.043L77.076,18.292L79.844,18.656L82.45,19.131L84.852,19.708L87.01,20.379L88.886,21.134L90.447,21.961L91.667,22.85L92.522,23.786L92.995,24.757L93.076,25.746L92.764,26.738L92.06,27.717ZM100.229,35.793L98.141,37.098L95.566,38.313L92.553,39.414L89.158,40.38L85.447,41.193L81.486,41.836L77.348,42.296L73.103,42.565L68.824,42.637L64.579,42.509L60.437,42.183L56.464,41.664L52.722,40.959L49.27,40.082L46.166,39.046L43.461,37.87L41.203,36.574L39.432,35.182L38.185,33.72L37.487,32.217L37.355,30.7L37.794,29.199L38.801,27.743L40.359,26.36L42.439,25.075L45.004,23.911L48.005,22.888L51.386,22.022L55.084,21.325L59.033,20.806L63.162,20.467L67.399,20.311L71.675,20.336L75.917,20.537L80.059,20.908L84.035,21.441L87.782,22.126L91.241,22.954L94.354,23.911L97.069,24.987L99.339,26.166L101.122,27.434L102.381,28.772L103.09,30.162L103.231,31.582L102.796,33.01L101.79,34.422ZM108.083,44.741L105.444,46.386L102.184,47.915L98.367,49.296L94.07,50.503L89.378,51.513L84.381,52.306L79.169,52.869L73.832,53.19L68.46,53.265L63.138,53.092L57.946,52.674L52.963,52.016L48.265,51.13L43.924,50.028L40.008,48.729L36.583,47.253L33.711,45.626L31.447,43.876L29.839,42.035L28.923,40.138L28.726,38.223L29.259,36.326L30.517,34.484L32.48,32.736L35.113,31.113L38.364,29.647L42.17,28.362L46.455,27.279L51.137,26.414L56.127,25.774L61.334,25.365L66.668,25.187L72.039,25.235L77.362,25.502L82.554,25.981L87.536,26.659L92.234,27.525L96.576,28.566L100.494,29.77L103.923,31.12L106.802,32.601L109.075,34.194L110.694,35.878L111.621,37.63L111.828,39.422L111.303,41.226L110.048,43.01ZM114.063,55.1L111.003,57.002L107.216,58.761L102.782,60.341L97.795,61.712L92.354,62.849L86.568,63.733L80.542,64.349L74.381,64.689L68.187,64.748L62.054,64.528L56.072,64.033L50.329,63.27L44.906,62.25L39.884,60.989L35.343,59.504L31.357,57.818L28.002,55.957L25.342,53.953L23.439,51.841L22.34,49.659L22.078,47.45L22.671,45.257L24.117,43.125L26.392,41.095L29.453,39.21L33.24,37.505L37.675,36.011L42.665,34.752L48.11,33.746L53.905,33.004L59.941,32.531L66.112,32.327L72.315,32.386L78.453,32.7L84.434,33.257L90.171,34.047L95.582,35.054L100.588,36.265L105.113,37.665L109.083,39.236L112.429,40.961L115.083,42.818L116.986,44.782L118.09,46.826L118.359,48.916L117.773,51.018L116.334,53.092ZM117.771,66.322L114.449,68.38L110.335,70.27L105.518,71.957L100.1,73.408L94.195,74.599L87.919,75.513L81.39,76.137L74.721,76.466L68.018,76.498L61.383,76.236L54.91,75.688L48.691,74.861L42.812,73.767L37.359,72.421L32.416,70.84L28.068,69.047L24.396,67.066L21.474,64.928L19.372,62.67L18.145,60.33L17.833,57.954L18.459,55.586L20.02,53.276L22.493,51.071L25.83,49.015L29.963,47.148L34.804,45.506L40.249,44.117L46.187,43.002L52.497,42.174L59.061,41.64L65.762,41.4L72.488,41.449L79.135,41.78L85.606,42.379L91.808,43.236L97.658,44.334L103.071,45.659L107.969,47.195L112.273,48.922L115.907,50.821L118.797,52.865L120.878,55.028L122.094,57.276L122.403,59.572L121.783,61.874L120.231,64.139ZM118.957,77.757L115.552,79.86L111.335,81.78L106.397,83.481L100.843,84.933L94.791,86.113L88.359,87.007L81.668,87.605L74.833,87.906L67.962,87.911L61.158,87.624L54.517,87.055L48.132,86.212L42.091,85.107L36.482,83.753L31.392,82.167L26.908,80.369L23.115,78.381L20.092,76.233L17.911,73.958L16.632,71.594L16.297,69.184L16.93,66.774L18.532,64.412L21.076,62.147L24.514,60.024L28.775,58.086L33.765,56.371L39.378,54.91L45.496,53.725L51.994,52.834L58.748,52.245L65.638,51.962L72.549,51.98L79.372,52.295L86.009,52.894L92.367,53.767L98.36,54.898L103.904,56.272L108.919,57.87L113.325,59.673L117.046,61.658L120.006,63.795L122.138,66.055L123.385,68.399L123.703,70.787L123.068,73.175L121.478,75.514ZM117.562,88.732L114.257,90.769L110.166,92.621L105.377,94.252L99.989,95.636L94.115,96.754L87.868,97.594L81.364,98.148L74.712,98.418L68.021,98.406L61.389,98.12L54.912,97.566L48.68,96.756L42.782,95.7L37.305,94.411L32.334,92.902L27.956,91.192L24.253,89.301L21.303,87.254L19.176,85.082L17.93,82.819L17.606,80.505L18.226,78.182L19.789,75.896L22.272,73.691L25.626,71.614L29.782,69.706L34.65,68.003L40.126,66.539L46.094,65.339L52.435,64.42L59.026,63.796L65.75,63.471L72.493,63.447L79.15,63.719L85.622,64.278L91.819,65.115L97.655,66.216L103.048,67.564L107.92,69.142L112.194,70.927L115.796,72.893L118.656,75.012L120.709,77.248L121.902,79.564L122.195,81.917L121.565,84.26L120.014,86.547ZM113.721,98.628L110.688,100.498L106.94,102.193L102.552,103.683L97.613,104.944L92.223,105.961L86.484,106.724L80.498,107.227L74.368,107.471L68.192,107.46L62.064,107.2L56.074,106.699L50.309,105.966L44.854,105.012L39.792,103.847L35.203,102.484L31.167,100.94L27.761,99.231L25.054,97.381L23.11,95.414L21.978,93.362L21.695,91.258L22.279,89.139L23.728,87.047L26.02,85.02L29.11,83.099L32.935,81.324L37.415,79.727L42.456,78.341L47.954,77.191L53.8,76.297L59.882,75.671L66.091,75.324L72.323,75.258L78.478,75.472L84.462,75.961L90.19,76.715L95.579,77.724L100.551,78.971L105.034,80.438L108.955,82.102L112.249,83.939L114.852,85.916L116.71,88.002L117.775,90.156L118.017,92.339L117.417,94.508L115.978,96.618ZM107.725,106.953L105.115,108.565L101.894,110.027L98.125,111.313L93.881,112.406L89.242,113.29L84.294,113.957L79.123,114.402L73.818,114.626L68.465,114.629L63.147,114.418L57.946,113.999L52.94,113.38L48.206,112.569L43.819,111.576L39.851,110.415L36.37,109.097L33.443,107.638L31.127,106.059L29.473,104.38L28.523,102.627L28.302,100.827L28.825,99.013L30.087,97.216L32.069,95.47L34.733,93.808L38.027,92.264L41.883,90.866L46.225,89.643L50.964,88.617L56.01,87.808L61.268,87.229L66.645,86.891L72.048,86.799L77.39,86.953L82.587,87.351L87.56,87.987L92.235,88.849L96.542,89.924L100.414,91.195L103.792,92.641L106.616,94.238L108.835,95.957L110.406,97.767L111.292,99.635L111.471,101.525L110.931,103.398L109.676,105.22ZM99.959,113.354L97.893,114.634L95.348,115.798L92.371,116.829L89.016,117.709L85.345,118.427L81.421,118.976L77.315,119.351L73.093,119.549L68.827,119.571L64.584,119.421L60.434,119.102L56.44,118.621L52.668,117.985L49.179,117.203L46.032,116.284L43.281,115.241L40.977,114.087L39.165,112.838L37.881,111.511L37.154,110.127L37.003,108.706L37.435,107.274L38.445,105.854L40.018,104.473L42.124,103.156L44.724,101.927L47.767,100.811L51.194,99.829L54.941,98.998L58.936,98.337L63.107,97.856L67.38,97.566L71.682,97.471L75.942,97.574L80.089,97.873L84.059,98.364L87.789,99.038L91.22,99.884L94.299,100.888L96.975,102.033L99.203,103.297L100.944,104.657L102.165,106.09L102.843,107.567L102.962,109.06L102.515,110.541L101.509,111.982ZM90.844,117.613L89.413,118.502L87.654,119.316L85.596,120.041L83.276,120.666L80.734,121.182L78.014,121.582L75.163,121.862L72.228,122.019L69.259,122.052L66.305,121.962L63.415,121.751L60.637,121.424L58.016,120.985L55.597,120.442L53.421,119.802L51.526,119.074L49.946,118.269L48.71,117.398L47.842,116.475L47.358,115.513L47.27,114.529L47.581,113.538L48.287,112.557L49.375,111.603L50.827,110.693L52.617,109.844L54.71,109.072L57.069,108.39L59.652,107.813L62.41,107.35L65.295,107.011L68.258,106.802L71.245,106.729L74.208,106.792L77.096,106.991L79.863,107.322L82.461,107.782L84.85,108.36L86.99,109.047L88.845,109.831L90.384,110.698L91.582,111.631L92.417,112.613L92.873,113.626L92.943,114.652L92.624,115.671L91.92,116.664ZM80.801,119.604L79.168,120.482L78.116,120.86L75.627,121.464L72.771,121.834L71.265,121.925L68.225,121.912L65.319,121.643L63.977,121.418L61.633,120.806L60.671,120.428L59.871,120.01L59.249,119.558L58.814,119.08L58.576,118.584L58.538,118.078L58.702,117.57L59.065,117.068L59.62,116.582L60.358,116.119L62.33,115.297L63.528,114.952L66.246,114.426L67.717,114.255L70.759,114.112L72.278,114.143L73.76,114.243L76.516,114.64L77.743,114.931L79.793,115.67L80.582,116.105L81.193,116.574L81.618,117.069L81.849,117.58L81.882,118.098L81.715,118.614L81.353,119.119ZM70.25,119.265L70.25,119.265ZM70.25,20.821L75.564,21.937L80.828,23.624L85.985,25.873L90.979,28.666L95.747,31.982L100.229,35.793L104.361,40.061L108.083,44.741L111.335,49.775L114.063,55.1L116.221,60.643L117.771,66.322L118.688,72.056L118.957,77.757L118.578,83.343L117.562,88.732L115.932,93.849L113.721,98.628L110.97,103.013L107.725,106.953L104.037,110.41L99.959,113.354L95.544,115.761L90.844,117.613L85.912,118.897L80.801,119.604L75.563,119.728L70.25,119.265M70.25,20.821L74.741,22.38L79.189,24.509L83.546,27.192L87.762,30.406L91.786,34.125L95.566,38.313L99.049,42.927L102.184,47.915L104.921,53.216L107.216,58.761L109.031,64.473L110.335,70.27L111.107,76.068L111.335,81.78L111.018,87.324L110.166,92.621L108.798,97.598L106.94,102.193L104.625,106.351L101.894,110.027L98.787,113.185L95.348,115.798L91.622,117.847L87.654,119.316L83.488,120.196L79.168,120.482L74.741,120.171L70.25,119.265M70.25,20.821L73.612,22.74L76.941,25.23L80.198,28.271L83.346,31.834L86.345,35.884L89.158,40.38L91.745,45.272L94.07,50.503L96.097,56.007L97.795,61.712L99.136,67.539L100.1,73.408L100.672,79.233L100.843,84.933L100.614,90.426L99.989,95.636L98.983,100.496L97.613,104.944L95.904,108.929L93.881,112.406L91.574,115.342L89.016,117.709L86.239,119.488L83.276,120.666L80.161,121.234L76.928,121.189L73.613,120.531L70.25,119.265M70.25,20.821L72.254,22.989L74.237,25.735L76.175,29.031L78.045,32.841L79.823,37.126L81.486,41.836L83.013,46.917L84.381,52.306L85.572,57.936L86.568,63.733L87.354,69.618L87.919,75.513L88.256,81.336L88.359,87.007L88.229,92.45L87.868,97.594L87.283,102.371L86.484,106.724L85.482,110.6L84.294,113.957L82.934,116.759L81.421,118.976L79.775,120.589L78.014,121.582L76.16,121.947L74.233,121.68L72.255,120.783L70.25,119.265M70.25,20.821L71.265,25.986L72.233,33.348L73.103,42.565L73.488,47.733L74.132,58.866L74.579,70.581L74.833,87.906L74.712,98.418L74.567,103.157L74.117,111.309L73.476,117.383L73.093,119.549L72.676,121.1L72.228,122.019L71.756,122.295L71.265,121.925L70.761,120.911L70.25,119.265M70.25,20.821L69.232,23.097L68.227,25.962L67.247,29.381L66.305,33.312L65.412,37.706L64.579,42.509L63.818,47.659L62.547,58.739L62.054,64.528L61.383,76.236L61.158,87.624L61.217,93.018L61.389,98.12L61.673,102.867L62.064,107.2L62.557,111.066L63.147,114.418L63.826,117.214L64.584,119.421L65.415,121.01L66.305,121.962L67.246,122.264L68.225,121.912L69.231,120.908L70.25,119.265M70.25,20.821L67.774,22.947L65.329,25.664L62.947,28.939L60.656,32.73L58.486,36.989L56.464,41.664L54.615,46.694L52.963,52.016L51.528,57.565L50.329,63.27L49.379,69.059L48.691,74.861L48.274,80.602L48.132,86.212L48.268,91.619L48.68,96.756L49.364,101.559L50.309,105.966L51.506,109.923L52.94,113.38L54.591,116.291L56.44,118.621L58.464,120.339L60.637,121.424L62.931,121.86L65.319,121.643L67.768,120.774L70.25,119.265M70.25,20.821L66.484,22.67L62.767,25.11L59.143,28.112L55.657,31.638L52.352,35.644L49.27,40.082L46.449,44.896L43.924,50.028L41.726,55.414L39.884,60.989L38.422,66.681L37.359,72.421L36.709,78.136L36.482,83.753L36.681,89.201L37.305,94.411L38.346,99.313L39.792,103.847L41.624,107.952L43.819,111.576L46.348,114.673L49.179,117.203L52.276,119.134L55.597,120.442L59.101,121.112L62.742,121.138L66.474,120.519L70.25,119.265M70.25,20.821L65.451,22.286L60.713,24.34L56.09,26.959L51.638,30.112L47.411,33.763L43.461,37.87L39.836,42.384L36.583,47.253L33.744,52.418L31.357,57.818L29.456,63.384L28.068,69.047L27.214,74.733L26.908,80.369L27.156,85.88L27.956,91.192L29.299,96.234L31.167,100.94L33.535,105.246L36.37,109.097L39.634,112.442L43.281,115.241L47.263,117.46L51.526,119.074L56.015,120.066L60.671,120.428L65.435,120.158L70.25,119.265M70.25,20.821L64.745,21.821L59.307,23.407L53.996,25.562L48.873,28.262L43.999,31.48L39.432,35.182L35.23,39.329L31.447,43.876L28.135,48.77L25.342,53.953L23.11,59.363L21.474,64.928L20.462,70.577L20.092,76.233L20.373,81.818L21.303,87.254L22.871,92.466L25.054,97.381L27.82,101.932L31.127,106.059L34.927,109.709L39.165,112.838L43.78,115.41L48.71,117.398L53.888,118.784L59.249,119.558L64.724,119.717L70.25,119.265M70.25,20.821L64.414,21.309L58.646,22.38L53.007,24.023L47.559,26.223L42.365,28.963L37.487,32.217L32.986,35.954L28.923,40.138L25.357,44.724L22.34,49.659L19.922,54.884L18.145,60.33L17.041,65.926L16.632,71.594L16.929,77.252L17.93,82.819L19.622,88.215L21.978,93.362L24.961,98.187L28.523,102.627L32.608,106.623L37.154,110.127L42.094,113.1L47.358,115.513L52.875,117.346L58.576,118.584L64.39,119.224L70.25,119.265M70.25,20.821L64.481,20.785L58.776,21.331L53.195,22.454L47.797,24.148L42.643,26.402L37.794,29.199L33.312,32.517L29.259,36.326L25.693,40.588L22.671,45.257L20.245,50.278L18.459,55.586L17.346,61.111L16.93,66.774L17.224,72.492L18.226,78.182L19.92,83.758L22.279,89.139L25.264,94.248L28.825,99.013L32.903,103.373L37.435,107.274L42.351,110.674L47.581,113.538L53.055,115.842L58.702,117.57L64.455,118.712L70.25,119.265M70.25,20.821L64.94,20.286L59.69,20.335L54.551,20.97L49.58,22.19L44.83,23.99L40.359,26.36L36.223,29.283L32.48,32.736L29.185,36.687L26.392,41.095L24.147,45.91L22.493,51.071L21.462,56.509L21.076,62.147L21.346,67.903L22.272,73.691L23.838,79.426L26.02,85.02L28.779,90.393L32.069,95.47L35.835,100.183L40.018,104.473L44.553,108.293L49.375,111.603L54.419,114.373L59.62,116.582L64.917,118.215L70.25,119.265M70.25,20.821L65.762,19.845L61.325,19.461L56.983,19.675L52.785,20.49L48.776,21.904L45.004,23.911L41.518,26.498L38.364,29.647L35.591,33.328L33.24,37.505L31.353,42.131L29.963,47.148L29.098,52.491L28.775,58.086L29.003,63.853L29.782,69.706L31.1,75.558L32.935,81.324L35.257,86.918L38.027,92.264L41.199,97.288L44.724,101.927L48.548,106.128L52.617,109.844L56.874,113.04L61.267,115.688L65.742,117.768L70.25,119.265M70.25,20.821L66.89,19.494L63.569,18.769L60.322,18.657L57.185,19.163L54.195,20.286L51.386,22.022L48.795,24.359L46.455,27.279L44.402,30.755L42.665,34.752L41.273,39.224L40.249,44.117L39.614,49.37L39.378,54.91L39.549,60.661L40.126,66.539L41.1,72.462L42.456,78.341L44.174,84.095L46.225,89.643L48.577,94.91L51.194,99.829L54.038,104.339L57.069,108.39L60.246,111.939L63.528,114.952L66.876,117.401L70.25,119.265M70.25,20.821L68.246,19.254L66.267,18.302L64.334,17.979L62.469,18.29L60.695,19.234L59.033,20.806L57.504,22.992L56.127,25.774L54.921,29.123L53.905,33.004L53.092,37.372L52.497,42.174L52.128,47.351L51.994,52.834L52.096,58.55L52.435,64.42L53.005,70.363L53.8,76.297L54.806,82.138L56.01,87.808L57.393,93.231L58.936,98.337L60.616,103.062L62.41,107.35L64.295,111.152L66.246,114.426L68.239,117.139L70.25,119.265M70.25,20.821L69.739,19.141L69.235,18.089L68.743,17.678L68.269,17.914L67.82,18.794L67.399,20.311L67.014,22.45L66.366,28.492L65.909,36.647L65.762,41.4L65.638,51.962L65.893,69.394L66.343,81.182L66.992,92.376L67.38,97.566L68.258,106.802L69.231,114.149L69.737,117.003L70.25,119.265M70.25,20.821L71.267,19.162L72.271,18.139L73.25,17.765L74.192,18.043L75.085,18.971L75.917,20.537L76.679,22.723L77.362,25.502L77.955,28.841L78.453,32.7L78.848,37.03L79.135,41.78L79.311,46.889L79.372,52.295L79.15,63.719L78.478,75.472L77.983,81.284L76.707,92.406L75.942,97.574L75.105,102.389L74.208,106.792L73.262,110.726L72.278,114.143L71.27,117.001L70.25,119.265M70.25,20.821L72.726,19.315L75.17,18.446L77.553,18.226L79.844,18.656L82.013,19.733L84.035,21.441L85.884,23.759L87.536,26.659L88.971,30.102L90.171,34.047L91.121,38.443L91.808,43.236L92.226,48.365L92.367,53.767L92.231,59.374L91.819,65.115L91.136,70.92L90.19,76.715L88.993,82.428L87.56,87.987L85.908,93.321L84.059,98.364L82.035,103.051L79.863,107.322L77.568,111.125L75.181,114.409L72.731,117.134L70.25,119.265M70.25,20.821L74.016,19.589L77.736,18.988L81.363,19.028L84.852,19.708L88.159,21.022L91.241,22.954L94.058,25.479L96.576,28.566L98.762,32.177L100.588,36.265L102.03,40.778L103.071,45.659L103.699,50.846L103.904,56.272L103.686,61.868L103.048,67.564L101.998,73.289L100.551,78.971L98.724,84.539L96.542,89.924L94.03,95.061L91.22,99.884L88.148,104.336L84.85,108.36L81.367,111.906L77.743,114.931L74.022,117.394L70.25,119.265M70.25,20.821L75.05,19.965L79.795,19.73L84.426,20.12L88.886,21.134L93.118,22.762L97.069,24.987L100.687,27.784L103.923,31.12L106.734,34.953L109.083,39.236L110.938,43.913L112.273,48.922L113.072,54.199L113.325,59.673L113.031,65.273L112.194,70.927L110.829,76.56L108.955,82.102L106.599,87.485L103.792,92.641L100.57,97.51L96.975,102.033L93.05,106.156L88.845,109.831L84.408,113.015L79.793,115.67L75.055,117.762L70.25,119.265M70.25,20.821L75.758,20.42L81.206,20.624L86.53,21.436L91.667,22.85L96.552,24.855L101.122,27.434L105.315,30.558L109.075,34.194L112.346,38.298L115.083,42.818L117.243,47.696L118.797,52.865L119.722,58.257L120.006,63.795L119.648,69.406L118.656,75.012L117.049,80.539L114.852,85.916L112.101,91.076L108.835,95.957L105.1,100.501L100.944,104.657L96.42,108.381L91.582,111.631L86.487,114.372L81.193,116.574L75.76,118.212L70.25,119.265M70.25,20.821L76.09,20.922L81.871,21.614L87.528,22.895L92.995,24.757L98.205,27.186L103.09,30.162L107.584,33.656L111.621,37.63L115.141,42.039L118.09,46.826L120.42,51.928L122.094,57.276L123.087,62.793L123.385,68.399L122.986,74.016L121.902,79.564L120.154,84.968L117.775,90.156L114.806,95.065L111.292,99.635L107.286,103.817L102.843,107.567L98.02,110.847L92.873,113.626L87.463,115.878L81.849,117.58L76.091,118.714L70.25,119.265M70.25,20.821L76.024,21.44L81.742,22.637L87.343,24.407L92.764,26.738L97.937,29.614L102.796,33.01L107.273,36.895L111.303,41.226L114.822,45.954L117.773,51.018L120.106,56.35L121.783,61.874L122.775,67.51L123.068,73.175L122.661,78.785L121.565,84.26L119.806,89.524L117.417,94.508L114.442,99.15L110.931,103.398L106.936,107.208L102.515,110.541L97.725,113.37L92.624,115.671L87.268,117.423L81.715,118.614L76.023,119.231L70.25,119.265" fill="none" stroke="#233940" stroke-width=".24"/><text x="12" y="153" fill="#233940" font-size="6">01 / 48</text></g><g transform="translate(140,0)"><path d="M70.02,24.615L70.02,24.615ZM80.491,23.16L77.758,24.791L75.232,26.01L70.973,27.737L68.164,28.662L65.608,29.316L64.472,29.529L62.555,29.717L61.181,29.607L60.715,29.452L60.404,29.239L60.25,28.976L60.254,28.671L60.416,28.331L60.732,27.964L61.198,27.577L62.549,26.766L65.472,25.522L69.145,24.307L74.431,22.845L78.983,21.862L80.528,21.712L81.356,21.87L81.463,22.073L81.354,22.359L81.028,22.724ZM92.127,24.988L90.553,26.028L88.562,27.148L86.218,28.321L80.764,30.716L74.848,32.981L71.919,33.964L66.411,35.507L63.909,36.035L61.608,36.391L59.523,36.574L57.664,36.588L56.041,36.444L54.663,36.156L53.539,35.739L52.681,35.213L52.098,34.599L51.8,33.917L51.794,33.19L52.083,32.437L52.664,31.679L53.532,30.93L54.672,30.206L56.067,29.515L57.695,28.862L59.53,28.248L63.709,27.125L68.386,26.091L83.378,23.062L87.869,22.265L89.806,22.009L91.451,21.888L92.736,21.934L93.591,22.184L93.973,22.633L93.858,23.264L93.239,24.057ZM103.31,31.086L100.916,32.625L97.857,34.228L94.244,35.849L90.208,37.446L85.892,38.982L77.02,41.75L72.744,42.873L68.701,43.769L64.936,44.423L61.468,44.826L58.3,44.979L55.427,44.891L52.844,44.574L50.553,44.047L48.563,43.333L46.894,42.455L45.571,41.445L44.623,40.332L44.079,39.152L43.965,37.94L44.298,36.732L45.084,35.561L46.314,34.458L47.968,33.446L50.012,32.541L52.401,31.753L55.084,31.08L58.008,30.514L64.377,29.632L78.187,28.197L95.629,26.088L98.706,25.843L101.415,25.783L103.58,26.009L105.083,26.536L105.843,27.342L105.807,28.397L104.958,29.66ZM112.354,40.807L109.284,42.727L105.327,44.653L100.644,46.521L95.423,48.278L89.874,49.882L84.208,51.305L78.647,52.499L73.356,53.417L68.414,54.049L63.847,54.393L59.644,54.457L55.776,54.25L52.215,53.786L48.943,53.078L45.96,52.145L43.287,51.005L40.961,49.683L39.038,48.209L37.58,46.619L36.65,44.956L36.306,43.267L36.591,41.606L37.523,40.021L39.098,38.56L41.282,37.264L44.016,36.159L47.222,35.262L50.807,34.572L54.677,34.079L58.743,33.756L67.175,33.484L84.263,33.356L101.374,32.867L105.375,32.895L109.001,33.12L111.998,33.655L114.141,34.549L115.306,35.766L115.41,37.257L114.42,38.96ZM117.906,52.786L114.408,54.914L109.869,56.955L104.486,58.837L98.497,60.501L92.162,61.907L85.769,63.021L79.573,63.824L73.711,64.324L68.241,64.539L63.159,64.488L58.424,64.187L53.985,63.65L49.799,62.884L45.847,61.894L42.137,60.684L38.708,59.26L35.629,57.637L32.991,55.836L30.9,53.893L29.468,51.852L28.794,49.77L28.958,47.715L30.003,45.756L31.912,43.954L34.632,42.361L38.08,41.025L42.142,39.98L46.671,39.234L51.518,38.77L56.542,38.562L61.628,38.567L71.669,39.022L100.088,41.18L104.709,41.588L109.17,42.115L113.29,42.835L116.836,43.809L119.48,45.111L120.988,46.734L121.249,48.608L120.215,50.655ZM119.239,65.261L115.623,67.399L110.903,69.346L105.299,71.027L99.088,72.388L92.604,73.407L86.117,74.091L79.821,74.468L73.829,74.576L68.17,74.454L62.82,74.132L57.725,73.627L52.83,72.943L48.095,72.078L43.509,71.019L39.094,69.755L34.915,68.275L31.073,66.576L27.703,64.668L25.03,62.587L23.216,60.383L22.356,58.115L22.509,55.847L23.698,53.647L25.901,51.582L29.057,49.717L33.063,48.106L37.788,46.796L43.072,45.82L48.741,45.195L54.618,44.927L60.516,44.98L66.285,45.266L71.849,45.73L77.182,46.321L82.29,46.997L91.988,48.496L101.287,50.164L105.818,51.113L110.189,52.194L114.246,53.459L117.771,54.948L120.506,56.679L122.19,58.638L122.578,60.782L121.589,63.023ZM116.471,76.467L113.06,78.437L108.623,80.138L103.391,81.515L97.63,82.546L91.603,83.239L85.526,83.631L79.555,83.77L73.767,83.708L68.178,83.489L62.76,83.14L57.47,82.673L52.262,82.084L47.111,81.358L42.022,80.471L37.036,79.396L32.246,78.105L27.88,76.562L24.164,74.768L21.25,72.757L19.27,70.578L18.326,68.287L18.485,65.951L19.771,63.64L22.159,61.426L25.583,59.377L29.933,57.555L35.063,56.012L40.799,54.786L46.954,53.904L53.33,53.376L59.737,53.196L66.001,53.347L71.971,53.773L77.583,54.388L82.841,55.152L87.777,56.035L92.444,57.021L96.891,58.106L101.155,59.301L105.239,60.625L109.097,62.102L112.624,63.756L115.653,65.599L117.974,67.624L119.369,69.796L119.647,72.052L118.69,74.308ZM111.293,85.409L108.307,87.138L104.48,88.597L99.984,89.756L95.014,90.614L89.759,91.197L84.373,91.548L78.962,91.716L73.581,91.748L62.939,91.539L52.312,91.034L46.963,90.641L41.615,90.115L36.358,89.401L31.433,88.404L27.015,87.115L23.265,85.551L20.334,83.742L18.353,81.729L17.422,79.566L17.605,77.313L18.925,75.04L21.358,72.814L24.836,70.705L29.249,68.774L34.451,67.075L40.272,65.652L46.521,64.535L53.002,63.74L59.526,63.269L65.914,63.112L72.011,63.251L77.693,63.653L82.923,64.265L87.727,65.058L92.148,66.012L96.23,67.121L100.009,68.384L103.496,69.807L106.666,71.396L109.455,73.151L111.756,75.063L113.431,77.107L114.33,79.234L114.321,81.379L113.316,83.465ZM105.44,92.394L102.927,93.886L99.768,95.17L96.072,96.234L91.957,97.083L87.54,97.74L82.916,98.241L78.156,98.622L68.367,99.158L58.261,99.509L47.849,99.635L42.643,99.491L37.649,99.073L33.008,98.37L28.869,97.38L25.377,96.115L22.668,94.598L20.858,92.863L20.034,90.954L20.254,88.926L21.534,86.837L23.851,84.749L27.143,82.723L31.309,80.818L36.218,79.084L41.714,77.565L47.624,76.293L53.771,75.289L59.979,74.562L66.082,74.111L71.935,73.926L77.415,73.987L82.428,74.272L86.953,74.771L91.03,75.475L94.69,76.372L97.961,77.452L100.855,78.709L103.363,80.134L105.452,81.712L107.063,83.421L108.121,85.227L108.545,87.085L108.264,88.939L107.231,90.729ZM99.656,98.29L97.589,99.562L95.039,100.714L92.064,101.739L88.728,102.64L85.096,103.431L77.154,104.768L68.546,105.913L54.727,107.393L50.026,107.679L45.438,107.737L41.074,107.551L37.055,107.111L33.501,106.413L30.531,105.466L28.253,104.285L26.758,102.897L26.116,101.335L26.368,99.643L27.525,97.867L29.567,96.056L32.441,94.261L36.065,92.531L40.331,90.91L45.111,89.436L50.266,88.14L55.647,87.044L61.109,86.164L66.512,85.505L71.732,85.065L76.661,84.836L81.209,84.807L85.313,84.96L88.944,85.294L92.142,85.833L94.923,86.566L97.295,87.479L99.259,88.556L100.8,89.774L101.895,91.109L102.512,92.529L102.618,93.998L102.184,95.474L101.195,96.917ZM93.805,103.777L92.165,104.825L90.165,105.829L87.837,106.785L85.213,107.692L82.328,108.554L75.904,110.172L68.796,111.69L61.225,113.064L57.381,113.568L53.591,113.908L49.935,114.064L46.498,114.025L43.367,113.781L40.632,113.332L38.374,112.681L36.67,111.839L35.581,110.825L35.153,109.662L35.413,108.379L36.366,107.01L37.994,105.59L40.259,104.155L43.101,102.741L46.442,101.382L50.191,100.109L54.247,98.947L58.502,97.918L62.849,97.036L67.184,96.313L71.411,95.751L75.446,95.353L79.214,95.114L82.658,95.028L85.735,95.086L88.412,95.279L90.697,95.626L92.605,96.139L94.134,96.801L95.283,97.593L96.043,98.494L96.407,99.481L96.367,100.528L95.919,101.609L95.062,102.7ZM87.319,109.064L86.131,109.845L83.008,111.421L81.11,112.205L76.745,113.75L71.776,115.234L69.129,115.902L63.69,116.995L58.358,117.673L55.857,117.827L53.538,117.846L51.456,117.726L49.663,117.466L48.207,117.069L47.131,116.542L46.469,115.895L46.244,115.142L46.47,114.301L47.146,113.391L48.262,112.434L49.792,111.45L51.701,110.464L53.942,109.496L56.46,108.567L62.081,106.893L65.052,106.178L70.995,105.042L73.846,104.632L79.053,104.141L83.345,104.08L85.081,104.201L86.522,104.417L87.66,104.724L88.498,105.13L89.039,105.63L89.282,106.212L89.227,106.86L88.877,107.56L88.238,108.299ZM79.527,113.762L77.139,115.104L73.672,116.454L69.545,117.616L66.695,118.189L62.744,118.626L60.613,118.591L59.094,118.287L58.61,118.038L58.327,117.731L58.253,117.372L58.392,116.968L58.742,116.527L59.297,116.057L60.047,115.57L62.063,114.578L66.043,113.19L70.517,112.111L74.73,111.487L77.072,111.357L78.877,111.456L79.548,111.588L80.39,112.006L80.555,112.284L80.548,112.604L80.029,113.348ZM70.02,116.385L70.02,116.385ZM70.02,24.615L75.047,23.598L80.491,23.16L86.256,23.539L92.127,24.988L97.884,27.523L103.31,31.086L108.196,35.565L112.354,40.807L115.63,46.619L117.906,52.786L119.116,59.077L119.239,65.261L118.31,71.119L116.471,76.467L114.054,81.226L111.293,85.409L108.38,89.094L105.44,92.394L102.532,95.426L96.769,101.06L93.805,103.777L90.684,106.453L87.319,109.064L83.628,111.552L79.527,113.762L74.971,115.407L70.02,116.385M70.02,24.615L74.262,24.095L78.836,24.206L83.661,25.151L88.562,27.148L93.354,30.201L97.857,34.228L101.899,39.102L105.327,44.653L108.015,50.678L109.869,56.955L110.836,63.253L110.903,69.346L110.103,75.023L108.623,80.138L106.689,84.651L104.48,88.597L102.141,92.065L99.768,95.17L97.402,98.023L92.645,103.306L90.165,105.829L87.536,108.283L84.688,110.632L81.556,112.811L78.072,114.647L74.209,115.867L70.02,116.385M70.02,24.615L73.179,24.659L76.547,25.397L80.055,26.975L83.591,29.519L87.017,33.043L90.208,37.446L93.045,42.584L95.423,48.278L97.261,54.323L98.497,60.501L99.103,66.593L99.088,72.388L98.56,77.732L97.63,82.546L96.414,86.823L95.014,90.614L93.513,94.003L91.957,97.083L90.365,99.94L88.728,102.64L87.023,105.22L85.213,107.692L83.256,110.037L81.11,112.205L78.735,114.119L76.086,115.562L73.166,116.34L70.02,116.385M70.02,24.615L71.889,25.241L73.844,26.614L75.841,28.819L77.82,31.886L79.712,35.787L81.447,40.429L82.962,45.662L84.208,51.305L85.147,57.159L85.769,63.021L86.082,68.711L86.117,74.091L85.915,79.075L85.526,83.631L84.999,87.773L84.373,91.548L82.916,98.241L81.223,104.133L80.267,106.841L79.215,109.378L78.047,111.703L76.745,113.75L75.292,115.408L73.672,116.454L71.905,116.797L70.02,116.385M70.02,24.615L70.491,25.791L70.973,27.737L71.454,30.471L72.353,38.138L72.744,42.873L73.081,48.021L73.565,58.9L73.829,74.576L73.767,83.708L73.581,91.748L73.124,102.23L72.689,108.275L72.119,113.291L71.776,115.234L71.389,116.587L70.962,117.261L70.503,117.205L70.02,116.385M70.02,24.615L69.091,26.263L68.164,28.662L67.263,31.769L66.411,35.507L65.63,39.767L64.936,44.423L64.34,49.341L63.455,59.471L62.95,69.385L62.759,78.716L62.821,87.412L63.116,95.524L63.662,103.008L64.505,109.602L65.051,112.413L65.689,114.754L66.42,116.494L67.233,117.568L68.114,117.927L69.05,117.537L70.02,116.385M70.02,24.615L67.786,26.624L65.608,29.316L63.535,32.607L61.608,36.391L59.858,40.552L58.3,44.979L56.941,49.572L55.776,54.25L54.795,58.955L53.985,63.65L53.333,68.315L52.83,72.943L52.473,77.533L52.262,82.084L52.205,86.589L52.312,91.034L52.6,95.389L53.086,99.611L53.789,103.639L54.727,107.393L55.925,110.737L57.381,113.568L59.077,115.809L60.986,117.393L63.077,118.266L65.31,118.396L67.64,117.767L70.02,116.385M70.02,24.615L66.661,26.848L63.451,29.662L60.441,32.946L57.664,36.588L55.133,40.491L52.844,44.574L50.786,48.781L48.943,53.078L47.3,57.45L45.847,61.894L44.581,66.415L43.509,71.019L42.647,75.708L42.022,80.471L41.665,85.287L41.615,90.115L41.917,94.89L42.643,99.491L43.818,103.807L45.438,107.737L47.486,111.185L49.935,114.064L52.743,116.298L55.857,117.827L59.214,118.61L62.744,118.626L66.372,117.878L70.02,116.385M70.02,24.615L65.782,26.927L61.796,29.697L58.09,32.806L54.663,36.156L51.497,39.678L48.563,43.333L45.834,47.106L43.287,51.005L40.91,55.048L38.708,59.26L36.698,63.664L34.915,68.275L33.41,73.095L32.246,78.105L31.556,83.242L31.433,88.404L31.91,93.483L33.008,98.37L34.728,102.949L37.055,107.111L39.952,110.752L43.367,113.781L47.23,116.124L51.456,117.726L55.951,118.552L60.613,118.591L65.337,117.858L70.02,116.385M70.02,24.615L65.198,26.865L60.715,29.452L56.557,32.26L52.681,35.213L49.036,38.276L45.571,41.445L42.246,44.743L39.038,48.209L35.946,51.891L32.991,55.836L30.218,60.087L27.703,64.668L25.637,69.583L24.164,74.768L23.354,80.126L23.265,85.551L23.934,90.922L25.377,96.115L27.587,101.004L30.531,105.466L34.153,109.391L38.374,112.681L43.097,115.259L48.207,117.069L53.583,118.08L59.094,118.287L64.614,117.708L70.02,116.385M70.02,24.615L64.939,26.675L60.25,28.976L55.896,31.409L51.8,33.917L47.883,36.49L44.079,39.152L40.342,41.953L36.65,44.956L33.012,48.232L29.468,51.852L26.116,55.882L23.216,60.383L20.902,65.309L19.27,70.578L18.399,76.09L18.353,81.729L19.169,87.365L20.858,92.863L23.403,98.084L26.758,102.897L30.85,107.179L35.581,110.825L40.832,113.751L46.469,115.895L52.349,117.224L58.327,117.731L64.262,117.437L70.02,116.385M70.02,24.615L65.015,26.378L60.416,28.331L56.138,30.366L48.161,34.546L44.298,36.732L40.448,39.059L36.591,41.606L32.742,44.461L28.958,47.715L25.484,51.504L22.509,55.847L20.143,60.689L18.485,65.951L17.619,71.533L17.605,77.313L18.481,83.159L20.254,88.926L22.901,94.468L26.368,99.643L30.574,104.319L35.413,108.379L40.759,111.73L46.47,114.301L52.397,116.051L58.392,116.968L64.31,117.065L70.02,116.385M70.02,24.615L65.42,25.999L61.198,27.577L53.532,30.93L46.314,34.458L42.718,36.397L39.098,38.56L35.473,41.042L31.912,43.954L28.673,47.464L25.901,51.582L23.699,56.26L22.159,61.426L21.36,66.983L21.358,72.814L22.187,78.785L23.851,84.749L26.328,90.555L29.567,96.056L33.489,101.109L37.994,105.59L42.963,109.391L48.262,112.434L53.753,114.664L59.297,116.057L64.76,116.62L70.02,116.385M70.02,24.615L66.127,25.563L62.549,26.766L59.221,28.105L53.016,30.984L50.012,32.541L47.017,34.24L44.016,36.159L41.023,38.387L38.08,41.025L35.377,44.247L33.063,48.106L31.223,52.563L29.933,57.555L29.259,62.995L29.249,68.774L29.93,74.762L31.309,80.818L33.368,86.791L36.065,92.531L39.336,97.892L43.101,102.741L47.259,106.962L51.701,110.464L56.312,113.18L60.975,115.073L65.579,116.135L70.02,116.385M70.02,24.615L67.094,25.094L64.395,25.936L61.888,27.014L59.53,28.248L57.274,29.602L55.084,31.08L52.932,32.718L50.807,34.572L48.712,36.717L46.671,39.234L44.741,42.221L43.072,45.82L41.739,50.025L40.799,54.786L40.298,60.028L40.272,65.652L40.741,71.542L41.714,77.565L43.179,83.579L45.111,89.436L47.467,94.991L50.191,100.109L53.214,104.668L56.46,108.567L59.845,111.725L63.288,114.093L66.704,115.645L70.02,116.385M70.02,24.615L68.265,24.616L66.633,25.111L65.12,25.979L63.709,27.125L62.382,28.487L61.121,30.039L59.911,31.786L58.743,33.756L57.618,35.995L56.542,38.562L55.533,41.519L54.618,44.927L53.866,48.879L53.33,53.376L53.035,58.357L53.002,63.74L53.246,69.423L53.771,75.289L54.576,81.209L55.647,87.044L56.965,92.659L58.502,97.918L60.22,102.699L62.081,106.893L64.037,110.412L66.043,113.19L68.052,115.186L70.02,116.385M70.02,24.615L69.569,24.15L69.145,24.307L68.75,24.987L68.386,26.091L67.737,29.269L67.175,33.484L66.688,38.738L66.285,45.266L66.001,53.347L65.914,63.112L66.082,74.111L66.265,79.818L66.821,91.045L67.184,96.313L67.595,101.187L68.523,109.33L69.019,112.426L69.521,114.789L70.02,116.385M70.02,24.615L70.927,23.719L71.794,23.542L72.607,24.022L73.358,25.078L74.041,26.622L74.66,28.573L75.216,30.863L76.157,36.284L76.892,42.716L77.182,46.321L77.583,54.388L77.693,63.653L77.415,73.987L77.098,79.397L76.661,84.836L76.107,90.193L75.446,95.353L74.687,100.202L73.846,104.632L72.939,108.543L71.985,111.848L71.005,114.479L70.02,116.385M70.02,24.615L72.253,23.347L74.431,22.845L76.505,23.094L78.431,24.051L80.182,25.645L81.739,27.787L83.098,30.387L84.263,33.356L85.244,36.622L86.055,40.128L86.707,43.837L87.209,47.728L87.566,51.793L87.777,56.035L87.835,60.456L87.727,65.058L87.44,69.836L86.953,74.771L86.25,79.831L85.313,84.96L84.115,90.061L82.658,95.028L80.963,99.757L79.053,104.141L76.962,108.082L74.73,111.487L72.399,114.276L70.02,116.385M70.02,24.615L73.457,23.061L76.889,22.263L80.225,22.262L83.378,23.062L86.27,24.628L88.838,26.891L91.044,29.754L92.87,33.106L94.32,36.832L95.416,40.828L96.188,45.007L96.671,49.303L96.898,53.676L96.891,58.106L96.667,62.587L96.23,67.121L95.576,71.715L94.69,76.372L93.553,81.084L92.142,85.833L90.435,90.583L88.412,95.279L86.05,99.821L83.345,104.08L80.337,107.957L77.072,111.357L73.611,114.191L70.02,116.385M70.02,24.615L74.451,22.887L78.983,21.862L83.501,21.636L87.869,22.265L91.954,23.761L95.629,26.088L98.792,29.163L101.374,32.867L103.344,37.059L104.709,41.588L105.513,46.312L105.818,51.113L105.703,55.902L105.239,60.625L104.489,65.26L103.496,69.807L102.283,74.283L100.855,78.709L99.2,83.104L97.295,87.479L95.109,91.831L92.605,96.139L89.752,100.358L86.522,104.417L82.885,108.155L78.877,111.456L74.563,114.227L70.02,116.385M70.02,24.615L75.155,22.845L80.528,21.712L86.015,21.357L91.451,21.888L96.649,23.364L101.415,25.783L105.579,29.073L109.001,33.12L111.581,37.77L113.29,42.835L114.152,48.123L114.246,53.459L113.691,58.702L112.624,63.756L111.176,68.573L109.455,73.151L107.534,77.516L105.452,81.712L103.214,85.784L100.8,89.774L98.173,93.708L95.283,97.593L92.075,101.414L88.498,105.13L84.504,108.651L80.054,111.773L75.199,114.381L70.02,116.385M70.02,24.615L75.508,22.952L81.356,21.87L87.45,21.551L93.591,22.184L99.542,23.857L105.083,26.536L110.01,30.141L114.141,34.549L117.332,39.601L119.48,45.111L120.532,50.875L120.506,56.679L119.589,62.308L117.974,67.624L115.861,72.56L113.431,77.107L110.823,81.306L108.121,85.227L105.355,88.945L102.512,92.529L99.55,96.031L96.407,99.481L93.009,102.883L89.282,106.212L85.156,109.409L80.555,112.284L75.484,114.64L70.02,116.385M70.02,24.615L75.473,23.207L81.354,22.359L87.557,22.294L93.858,23.264L100.018,25.313L105.807,28.397L111.003,32.425L115.41,37.257L118.865,42.719L121.249,48.608L122.492,54.704L122.578,60.782L121.55,66.627L119.647,72.052L117.161,76.97L114.321,81.379L111.314,85.337L108.264,88.939L105.222,92.288L99.106,98.567L95.919,101.609L92.538,104.614L88.877,107.56L84.85,110.395L80.372,112.96L75.405,114.99L70.02,116.385" fill="none" stroke="#233940" stroke-width=".24"/><text x="12" y="153" fill="#233940" font-size="6">13 / 48</text></g><g transform="translate(280,0)"><path d="M68.265,40.109L68.265,40.109ZM75.011,42.138L73.283,42.999L70.797,43.611L68.91,43.759L67.942,43.733L66.025,43.462L64.223,42.899L63.399,42.518L61.975,41.594L61.403,41.074L60.606,39.985L60.403,39.446L60.342,38.932L60.426,38.457L60.656,38.035L61.029,37.676L61.536,37.389L62.907,37.051L64.643,37.024L67.596,37.471L71.428,38.577L74.327,39.786L75.221,40.366L75.655,40.944L75.686,41.237L75.362,41.836ZM82.319,43.688L80.056,45.054L78.576,45.774L75.156,47.111L73.312,47.657L71.427,48.08L69.529,48.356L67.636,48.469L65.76,48.408L63.91,48.167L62.096,47.745L60.331,47.147L58.63,46.382L57.019,45.463L55.527,44.411L54.193,43.252L53.06,42.022L52.187,40.787L51.614,39.586L51.368,38.449L51.466,37.406L51.912,36.482L52.698,35.705L53.804,35.095L55.198,34.668L56.839,34.437L58.678,34.405L60.661,34.572L62.731,34.929L66.91,36.062L76.048,39.265L82.13,41.19L82.835,41.479L83.307,41.792L83.512,42.153L83.424,42.584L83.026,43.096ZM91.306,45.423L89.605,46.54L87.38,47.788L84.759,49.094L81.885,50.377L78.895,51.562L75.898,52.582L72.961,53.386L70.114,53.943L67.355,54.234L64.665,54.254L62.018,54.001L59.394,53.476L56.779,52.68L54.177,51.62L51.612,50.308L49.135,48.767L46.879,47.102L44.949,45.369L43.427,43.609L42.383,41.864L41.873,40.181L41.934,38.61L42.578,37.197L43.796,35.987L45.55,35.018L47.783,34.32L50.418,33.914L53.363,33.81L56.518,34.007L59.779,34.492L63.047,35.243L66.23,36.229L77.137,40.462L79.428,41.232L81.595,41.837L83.661,42.274L85.636,42.558L91.92,43.017L92.655,43.302L92.838,43.784L92.396,44.493ZM101.752,49.357L99.231,50.938L95.86,52.629L91.835,54.358L87.395,56.055L82.87,57.598L78.504,58.893L74.421,59.888L70.642,60.562L67.111,60.915L63.741,60.955L60.44,60.691L57.129,60.126L53.754,59.256L50.287,58.073L46.745,56.575L43.301,54.845L40.138,52.949L37.387,50.924L35.175,48.814L33.614,46.675L32.796,44.569L32.78,42.562L33.591,40.72L35.216,39.107L37.602,37.778L40.663,36.78L44.28,36.146L48.314,35.893L52.615,36.022L57.027,36.519L61.402,37.353L65.609,38.482L69.539,39.856L76.387,42.655L79.401,43.79L82.248,44.695L85.014,45.352L87.778,45.756L90.6,45.923L93.493,45.899L99.144,45.662L101.49,45.717L103.12,46.081L103.74,46.849L103.282,47.967ZM110.997,57.183L107.763,59.118L103.419,61.026L98.226,62.819L92.496,64.423L86.568,65.792L80.843,66.882L75.671,67.646L71.072,68.104L66.921,68.288L63.038,68.221L59.251,67.917L55.416,67.37L51.427,66.562L47.221,65.467L42.846,64.069L38.591,62.418L34.639,60.536L31.164,58.456L28.336,56.224L26.305,53.899L25.197,51.553L25.094,49.263L26.032,47.11L27.995,45.174L30.917,43.527L34.684,42.229L39.141,41.325L44.106,40.843L49.38,40.788L54.762,41.148L60.06,41.891L65.108,42.968L69.769,44.322L81.115,48.521L84.372,49.492L87.614,50.196L90.994,50.631L94.641,50.817L102.823,50.761L106.964,50.833L110.349,51.328L112.571,52.297L113.459,53.663L112.93,55.328ZM117.197,67.929L113.484,70.058L108.483,71.986L102.499,73.614L95.9,74.869L89.086,75.713L82.461,76.142L76.511,76.254L71.351,76.174L66.8,75.977L58.512,75.328L49.941,74.227L45.222,73.408L40.293,72.334L35.483,70.972L30.989,69.328L27.012,67.424L23.753,65.301L21.392,63.015L20.077,60.64L19.906,58.256L20.925,55.953L23.116,53.819L26.401,51.936L30.649,50.377L35.679,49.196L41.277,48.43L47.213,48.094L53.25,48.179L59.17,48.658L64.778,49.486L69.92,50.603L74.491,51.941L82.19,54.424L85.692,55.392L89.234,56.161L93.028,56.74L97.27,57.164L107.268,57.947L112.286,58.696L116.262,59.935L118.89,61.592L119.968,63.562L119.399,65.719ZM119.172,79.823L115.305,81.954L110.09,83.707L103.849,84.986L96.967,85.724L89.866,85.896L82.968,85.52L76.773,84.83L62.456,82.972L44.471,81.403L39.337,80.771L34.32,79.834L29.622,78.585L25.457,77.033L22.038,75.21L19.554,73.162L18.162,70.956L17.966,68.671L19.015,66.393L21.291,64.213L24.712,62.215L29.14,60.476L34.383,59.058L40.219,58.005L46.402,57.34L52.685,57.063L58.836,57.157L64.654,57.585L69.977,58.297L74.693,59.236L89.769,62.939L103.133,65.496L108.659,66.676L113.937,68.241L118.115,70.213L120.885,72.49L122.034,74.947L121.458,77.441ZM116.55,90.832L112.883,92.772L107.939,94.198L102.023,95.021L95.5,95.191L88.769,94.699L82.245,93.607L71.324,91.188L66.808,90.286L62.612,89.652L58.504,89.255L54.294,89.042L45.052,88.912L40.084,88.735L35.241,88.26L30.717,87.469L26.715,86.361L23.436,84.952L21.062,83.28L19.741,81.397L19.572,79.373L20.599,77.284L22.805,75.212L26.113,73.239L30.388,71.439L35.451,69.874L41.087,68.592L47.063,67.622L53.142,66.977L59.103,66.648L64.752,66.615L69.933,66.842L74.537,67.286L78.578,67.873L85.707,69.303L92.897,71.15L97.012,72.347L101.639,73.832L106.674,75.69L111.616,77.941L115.567,80.473L118.185,83.167L119.269,85.888L118.719,88.492ZM109.845,99.097L106.693,100.696L102.452,101.711L97.379,102.072L91.785,101.749L86.011,100.755L80.508,99.407L71.03,96.865L66.933,95.975L63.054,95.393L59.233,95.095L55.332,95.039L42.474,95.618L38.16,95.546L34.156,95.179L30.637,94.509L27.774,93.543L25.721,92.304L24.603,90.83L24.502,89.175L25.455,87.401L27.446,85.576L30.407,83.769L34.223,82.045L38.739,80.461L43.77,79.066L49.115,77.891L54.57,76.956L59.942,76.266L65.062,75.814L69.791,75.582L74.03,75.545L77.788,75.705L81.199,76.067L84.405,76.633L87.556,77.422L90.796,78.472L94.247,79.835L97.972,81.571L101.901,83.715L105.786,86.251L109.114,89.038L111.318,91.849L112.215,94.55L111.72,97.009ZM100.352,103.352L97.93,104.526L94.684,105.13L90.813,105.13L86.607,104.626L82.334,103.779L70.603,100.943L67.121,100.32L63.751,99.942L60.41,99.803L57.025,99.881L53.545,100.138L46.288,100.93L42.775,101.128L39.551,101.076L36.748,100.762L34.495,100.186L32.908,99.359L32.078,98.308L32.065,97.067L32.895,95.682L34.553,94.203L36.987,92.681L40.107,91.169L43.794,89.715L47.908,88.358L52.294,87.132L56.794,86.059L61.259,85.154L65.553,84.421L69.566,83.857L73.214,83.46L76.504,83.298L79.506,83.391L82.302,83.746L84.976,84.374L87.602,85.298L90.237,86.543L92.896,88.128L95.532,90.054L98.011,92.281L100.121,94.714L101.608,97.212L102.229,99.596L101.81,101.679ZM90.244,103.785L88.633,104.598L86.542,105.063L84.083,105.198L81.383,105.06L78.558,104.733L70.091,103.514L67.36,103.257L64.663,103.135L61.979,103.157L59.289,103.315L56.585,103.59L48.626,104.659L46.312,104.776L44.335,104.691L42.776,104.402L41.708,103.912L41.188,103.237L41.253,102.397L41.915,101.419L43.164,100.336L44.963,99.183L47.253,97.995L49.955,96.807L52.974,95.649L59.555,93.528L66.176,91.787L72.153,90.544L74.802,90.229L77.242,90.148L79.498,90.308L81.599,90.713L83.57,91.368L85.419,92.271L87.139,93.416L88.696,94.78L90.028,96.32L91.048,97.971L91.657,99.643L91.761,101.234L91.297,102.644ZM81.916,103.272L80.95,103.817L79.74,104.226L78.322,104.504L76.739,104.669L67.636,104.805L63.87,104.995L60.19,105.367L53.765,106.185L52.592,106.201L51.693,106.083L51.104,105.832L50.852,105.455L50.954,104.961L51.414,104.364L52.224,103.683L54.8,102.14L58.385,100.492L62.561,98.89L66.872,97.456L70.924,96.426L72.785,96.129L74.518,95.989L76.119,96.011L77.584,96.195L78.908,96.537L80.085,97.028L81.1,97.654L81.938,98.393L82.573,99.216L82.982,100.09L83.137,100.972L83.017,101.822L82.61,102.6ZM74.972,103.242L73.933,103.793L72.509,104.237L68.914,104.862L61.829,105.597L60.393,105.5L60.176,105.38L60.106,105.209L60.422,104.718L61.329,104.052L62.748,103.271L64.542,102.457L67.581,101.378L70.566,100.711L71.474,100.612L73.086,100.613L73.769,100.711L74.847,101.08L75.226,101.336L75.636,101.943L75.656,102.273L75.552,102.606L75.323,102.931ZM68.265,103.777L68.265,103.777ZM68.265,40.109L71.64,41.19L75.011,42.138L78.519,42.956L86.554,44.442L91.306,45.423L96.518,46.917L101.752,49.357L106.656,52.816L110.997,57.183L114.568,62.29L117.197,67.929L118.757,73.859L119.172,79.823L118.424,85.564L116.55,90.832L113.643,95.405L109.845,99.097L105.343,101.773L100.352,103.352L95.144,103.86L90.244,103.785L81.916,103.272L78.343,103.172L74.972,103.242L68.265,103.777M68.265,40.109L73.961,42.727L76.903,43.905L83.529,46.287L87.38,47.788L91.577,49.799L95.86,52.629L99.871,56.414L103.419,61.026L106.337,66.289L108.483,71.986L109.754,77.877L110.09,83.707L109.474,89.226L107.939,94.198L105.559,98.415L102.452,101.711L98.768,103.969L94.684,105.13L90.479,105.329L86.542,105.063L76.765,103.941L73.933,103.793L68.265,103.777M68.265,40.109L76.926,46.472L79.32,48.28L81.885,50.377L84.602,52.92L87.395,56.055L90.101,59.892L92.496,64.423L94.459,69.483L95.9,74.869L96.75,80.36L96.967,85.724L96.544,90.737L95.5,95.191L93.888,98.908L91.785,101.749L89.292,103.621L86.607,104.626L83.937,105.033L81.383,105.06L78.987,104.896L68.265,103.777M68.265,40.109L69.541,41.802L72.049,45.552L74.594,49.979L75.898,52.582L77.21,55.534L78.504,58.893L79.734,62.683L80.843,66.882L81.771,71.411L82.461,76.142L82.869,80.906L82.968,85.52L82.754,89.804L82.245,93.607L81.479,96.824L80.508,99.407L79.392,101.369L78.19,102.774L76.948,103.72L75.701,104.311L74.465,104.638L73.242,104.771L72.024,104.748L70.799,104.583L69.551,104.269L68.265,103.777M68.265,40.109L68.91,43.759L69.529,48.356L70.114,53.943L70.642,60.562L71.233,72.11L71.439,84.112L71.197,94.222L71.03,96.865L70.603,100.943L70.091,103.514L69.812,104.297L69.523,104.774L69.223,104.962L68.914,104.862L68.594,104.472L68.265,103.777M68.265,40.109L67.615,41.706L66.976,43.635L65.76,48.408L64.665,54.254L64.178,57.514L63.359,64.538L62.784,71.957L62.491,79.384L62.456,82.972L62.497,86.41L62.799,92.658L63.373,97.829L63.751,99.942L64.183,101.715L64.663,103.135L65.187,104.191L65.748,104.876L66.342,105.182L66.963,105.104L67.606,104.636L68.265,103.777M68.265,40.109L66.674,41.473L65.103,43.216L63.571,45.315L62.096,47.745L60.698,50.477L59.394,53.476L58.199,56.705L57.129,60.126L56.198,63.696L55.416,67.37L54.794,71.104L54.341,74.851L54.061,78.564L53.959,82.197L54.037,85.705L54.294,89.042L54.728,92.167L55.332,95.039L56.101,97.621L57.025,99.881L58.092,101.787L59.289,103.315L60.602,104.445L62.013,105.161L63.504,105.454L65.056,105.319L66.651,104.758L68.265,103.777M68.265,40.109L65.832,41.129L63.399,42.518L60.989,44.272L58.63,46.382L56.349,48.837L54.177,51.62L52.145,54.709L50.287,58.073L48.635,61.674L47.221,65.467L46.075,69.398L45.222,73.408L44.683,77.432L44.471,81.403L44.594,85.252L45.052,88.912L45.835,92.321L46.928,95.423L48.309,98.17L49.949,100.524L51.816,102.457L53.875,103.95L56.089,104.996L58.423,105.596L60.839,105.758L63.305,105.496L65.79,104.828L68.265,103.777M68.265,40.109L65.147,40.698L61.975,41.594L58.762,42.823L55.527,44.411L52.302,46.384L49.135,48.767L46.11,51.595L43.301,54.845L40.773,58.472L38.591,62.418L36.811,66.611L35.483,70.972L34.645,75.41L34.32,79.834L34.52,84.148L35.241,88.26L36.465,92.085L38.16,95.546L40.282,98.577L42.775,101.128L45.579,103.162L48.626,104.659L51.845,105.615L55.168,106.04L58.513,106.013L61.829,105.597L65.086,104.838L68.265,103.777M68.265,40.109L64.667,40.217L60.943,40.533L57.073,41.111L53.06,42.022L48.984,43.418L44.949,45.369L41.05,47.877L37.387,50.924L34.059,54.469L31.164,58.456L28.79,62.805L27.012,67.424L25.888,72.205L25.457,77.033L25.735,81.791L26.715,86.361L28.366,90.633L30.637,94.509L33.459,97.907L36.748,100.762L40.407,103.031L44.335,104.691L48.43,105.742L52.592,106.201L56.731,106.104L60.749,105.574L64.591,104.777L68.265,103.777M68.265,40.109L60.403,39.446L56.123,39.334L51.614,39.586L46.999,40.416L42.383,41.864L37.879,43.951L33.614,46.675L29.715,50.009L26.305,53.899L23.499,58.268L21.392,63.015L20.061,68.024L19.554,73.162L19.891,78.293L21.062,83.28L23.028,87.989L25.721,92.304L29.051,96.12L32.908,99.359L37.17,101.966L41.708,103.912L46.393,105.194L51.104,105.832L55.731,105.869L60.176,105.38L64.346,104.636L68.265,103.777M68.265,40.109L60.426,38.457L56.074,37.723L51.466,37.406L46.717,37.681L41.934,38.61L37.243,40.232L32.78,42.562L28.685,45.587L25.094,49.263L22.132,53.519L19.906,58.256L18.5,63.353L17.966,68.671L18.327,74.062L19.572,79.373L21.655,84.456L24.502,89.175L28.012,93.411L32.065,97.067L36.526,100.076L41.253,102.397L46.106,104.019L50.954,104.961L55.681,105.262L60.188,104.987L68.265,103.777M68.265,40.109L61.029,37.676L56.986,36.483L52.698,35.705L48.267,35.515L43.796,35.987L39.402,37.175L35.216,39.107L31.371,41.784L27.995,45.174L25.21,49.217L23.116,53.819L21.792,58.863L21.291,64.213L21.632,69.715L22.805,75.212L24.767,80.548L27.446,85.576L30.747,90.164L34.553,94.203L38.737,97.611L43.164,100.336L47.701,102.358L52.224,103.683L56.623,104.346L60.805,104.404L68.265,103.777M68.265,40.109L62.167,37.18L58.782,35.737L55.198,34.668L51.503,34.17L47.783,34.32L44.134,35.178L40.663,36.78L37.477,39.138L34.684,42.229L32.38,46.002L30.649,50.377L29.555,55.244L29.14,60.476L29.421,65.925L30.388,71.439L32.009,76.862L34.223,82.045L36.954,86.852L40.107,91.169L43.576,94.905L47.253,97.995L51.028,100.409L54.8,102.14L58.476,103.212L61.982,103.671L68.265,103.777M68.265,40.109L63.739,37L61.274,35.556L58.678,34.405L56.021,33.799L53.363,33.81L50.77,34.496L48.314,35.893L46.069,38.014L44.106,40.843L42.49,44.338L41.277,48.43L40.511,53.024L40.219,58.005L40.413,63.241L41.087,68.592L42.219,73.913L43.77,79.066L45.687,83.918L47.908,88.358L50.362,92.291L52.974,95.649L55.672,98.388L58.385,100.492L61.049,101.968L63.608,102.862L66.009,103.416L68.265,103.777M68.265,40.109L66.956,38.538L65.6,37.117L64.192,35.89L62.731,34.929L61.247,34.423L59.779,34.492L58.36,35.181L57.027,36.519L55.815,38.512L54.762,41.148L53.898,44.39L53.25,48.179L52.841,52.436L52.685,57.063L52.786,61.95L53.142,66.977L53.743,72.019L54.57,76.956L55.597,81.67L56.794,86.059L58.126,90.035L59.555,93.528L61.046,96.489L62.561,98.89L64.067,100.723L65.53,102.067L66.928,103.062L68.265,103.777M68.265,40.109L67.596,37.471L67.254,36.594L66.91,36.062L66.567,35.921L66.23,36.229L65.908,37.074L65.609,38.482L65.108,42.968L64.919,45.996L64.688,53.374L64.654,57.585L64.752,66.615L65.288,80.236L66.176,91.787L66.518,94.852L67.228,99.621L67.581,101.378L68.265,103.777M68.265,40.109L68.923,38.862L69.58,37.984L70.231,37.493L70.868,37.405L71.485,37.736L72.071,38.495L72.62,39.691L73.122,41.324L73.569,43.386L73.95,45.862L74.26,48.725L74.636,55.462L74.693,59.236L74.66,63.2L74.325,71.425L73.657,79.579L72.709,87.132L72.153,90.544L70.924,96.426L70.272,98.839L69.605,100.875L68.934,102.522L68.265,103.777M68.265,40.109L69.857,39.139L71.428,38.577L72.96,38.428L74.435,38.696L75.833,39.376L77.137,40.462L78.332,41.939L79.401,43.79L80.333,45.993L81.115,48.521L81.736,51.343L82.19,54.424L82.47,57.727L82.572,61.211L82.494,64.833L82.237,68.547L81.803,72.308L81.199,76.067L80.43,79.777L79.506,83.391L78.439,86.863L77.242,90.148L75.929,93.203L74.518,95.989L73.027,98.469L71.474,100.612L69.88,102.389L68.265,103.777M68.265,40.109L70.675,39.461L73.038,39.188L75.334,39.29L77.541,39.767L79.635,40.617L81.595,41.837L83.395,43.419L85.014,45.352L86.427,47.618L87.614,50.196L88.555,53.055L89.234,56.161L89.641,59.471L89.769,62.939L89.618,66.518L89.192,70.157L88.5,73.808L87.556,77.422L86.375,80.958L84.976,84.374L83.377,87.637L81.599,90.713L79.662,93.574L77.584,96.195L75.385,98.549L73.086,100.613L70.705,102.364L68.265,103.777M68.265,40.109L71.326,39.809L74.327,39.786L77.267,40.039L80.14,40.573L82.937,41.405L85.636,42.558L88.205,44.056L90.6,45.923L92.766,48.177L94.641,50.817L96.161,53.826L97.27,57.164L97.923,60.769L98.095,64.561L97.785,68.45L97.012,72.347L95.815,76.165L94.247,79.835L92.368,83.305L90.237,86.543L87.906,89.532L85.419,92.271L82.805,94.767L80.085,97.028L77.268,99.061L74.359,100.869L71.358,102.446L68.265,103.777M68.265,40.109L71.77,40.167L75.221,40.366L78.661,40.702L82.13,41.19L85.653,41.868L89.234,42.8L92.841,44.07L96.395,45.77L99.774,47.984L102.823,50.761L105.373,54.101L107.268,57.947L108.387,62.189L108.659,66.676L108.072,71.234L106.674,75.69L104.569,79.888L101.901,83.715L98.836,87.107L95.532,90.054L92.122,92.591L88.696,94.78L85.299,96.692L81.938,98.393L78.592,99.93L75.226,101.336L71.798,102.621L68.265,103.777M68.265,40.109L83.307,41.792L87.466,42.306L91.92,43.017L96.639,44.091L101.49,45.717L106.191,48.091L110.349,51.328L113.76,55.327L116.262,59.935L117.737,64.966L118.115,70.213L117.38,75.455L115.567,80.473L112.767,85.061L109.114,89.038L104.785,92.257L100.121,94.714L95.483,96.564L91.048,97.971L86.886,99.101L68.265,103.777M68.265,40.109L75.588,41.534L79.369,42.095L87.888,43.09L92.838,43.784L98.234,44.916L103.74,46.849L108.897,49.794L113.459,53.663L117.209,58.314L119.968,63.562L121.602,69.187L122.034,74.947L121.243,80.595L119.269,85.888L116.209,90.603L112.215,94.55L107.478,97.58L102.229,99.596L96.823,100.676L91.761,101.234L79.193,102.161L75.552,102.606L68.265,103.777" fill="none" stroke="#233940" stroke-width=".24"/><text x="12" y="153" fill="#233940" font-size="6">25 / 48</text></g><g transform="translate(420,0)"><path d="M69.997,24.416L69.997,24.416ZM79.252,29.873L78.614,30.254L77.836,30.563L76.927,30.795L75.901,30.945L73.552,30.991L70.914,30.697L69.534,30.425L66.76,29.644L64.123,28.586L62.915,27.971L60.841,26.617L60.017,25.901L59.362,25.175L58.891,24.453L58.616,23.749L58.544,23.075L58.679,22.445L59.02,21.872L59.56,21.367L60.289,20.941L61.193,20.601L63.444,20.207L64.744,20.16L67.562,20.367L69.023,20.616L71.91,21.373L73.284,21.866L75.779,23.029L76.861,23.677L78.618,25.046L79.271,25.744L79.764,26.435L80.091,27.109L80.252,27.754L80.245,28.361L80.074,28.921L79.742,29.427ZM87.054,36.439L85.879,37.157L84.449,37.776L82.783,38.285L80.902,38.67L78.829,38.92L76.59,39.023L74.209,38.969L71.712,38.749L69.127,38.355L66.484,37.787L63.822,37.07L61.184,36.215L58.619,35.231L56.179,34.129L53.917,32.925L51.885,31.638L50.136,30.288L48.716,28.901L47.665,27.503L47.019,26.122L46.799,24.788L47.019,23.53L47.679,22.375L48.768,21.352L50.261,20.482L52.123,19.786L54.31,19.279L56.767,18.973L59.435,18.871L62.251,18.974L65.15,19.276L68.07,19.767L70.948,20.433L73.73,21.256L76.364,22.215L78.81,23.287L81.031,24.448L82.998,25.675L84.695,26.937L86.117,28.183L87.258,29.398L88.111,30.573L88.672,31.701L88.937,32.776L88.905,33.794L88.577,34.749L87.957,35.633ZM93.82,43.269L92.171,44.294L90.153,45.223L87.799,46.037L85.151,46.713L82.247,47.231L79.126,47.57L75.823,47.712L72.369,47.642L68.792,47.344L65.12,46.809L61.381,46.028L57.618,45.009L53.907,43.796L50.327,42.403L46.962,40.847L43.896,39.148L41.217,37.335L39.007,35.44L37.337,33.501L36.271,31.56L35.851,29.66L36.106,27.848L37.038,26.168L38.633,24.663L40.851,23.372L43.634,22.326L46.907,21.552L50.578,21.066L54.55,20.876L58.717,20.983L62.974,21.377L67.22,22.041L71.36,22.952L75.31,24.079L79.001,25.39L82.375,26.85L85.391,28.417L88.049,29.991L90.352,31.531L92.295,33.027L93.874,34.473L95.078,35.869L95.897,37.219L96.316,38.524L96.323,39.785L95.909,41.002L95.072,42.166ZM100.105,50.35L97.995,51.666L95.38,52.896L92.326,54.01L88.905,54.975L85.194,55.764L81.256,56.354L77.144,56.724L72.894,56.859L68.531,56.744L64.072,56.367L59.531,55.715L54.932,54.78L50.315,53.559L45.8,52.096L41.507,50.414L37.552,48.532L34.056,46.478L31.134,44.289L28.893,42.009L27.422,39.691L26.79,37.389L27.038,35.163L28.177,33.073L30.186,31.177L33.015,29.525L36.581,28.164L40.779,27.129L45.484,26.443L50.556,26.12L55.852,26.16L61.227,26.549L66.545,27.267L71.682,28.282L76.533,29.555L81.012,31.043L85.062,32.68L88.696,34.324L91.929,35.935L94.771,37.498L97.225,39.013L99.286,40.484L100.931,41.923L102.129,43.343L102.838,44.756L103.016,46.168L102.629,47.579L101.658,48.979ZM106.305,58.105L103.717,59.697L100.452,61.192L96.625,62.545L92.372,63.719L87.819,64.686L83.076,65.428L78.221,65.936L73.302,66.203L68.337,66.226L63.329,66L58.27,65.516L53.16,64.764L48.014,63.73L42.882,62.406L37.939,60.813L33.348,58.973L29.253,56.911L25.799,54.66L23.12,52.269L21.329,49.792L20.516,47.291L20.734,44.835L22.002,42.494L24.296,40.335L27.554,38.422L31.677,36.809L36.536,35.541L41.976,34.648L47.826,34.148L53.91,34.042L60.055,34.319L66.097,34.953L71.893,35.909L77.322,37.146L82.299,38.584L86.833,40.066L90.95,41.547L98.047,44.435L101.06,45.843L103.702,47.246L105.931,48.664L107.679,50.119L108.858,51.627L109.375,53.194L109.149,54.813L108.128,56.462ZM112.3,67.179L109.232,69.014L105.29,70.69L100.655,72.153L95.535,73.368L90.129,74.319L84.604,75.009L79.075,75.452L73.603,75.667L68.205,75.668L62.865,75.467L57.555,75.065L52.248,74.453L46.936,73.618L41.641,72.539L36.428,71.198L31.524,69.583L27.125,67.71L23.394,65.607L20.478,63.319L18.507,60.898L17.583,58.408L17.768,55.918L19.085,53.503L21.509,51.235L24.974,49.183L29.37,47.409L34.553,45.961L40.351,44.877L46.576,44.177L53.035,43.867L59.536,43.938L65.903,44.367L71.983,45.12L77.657,46.123L82.903,47.238L87.745,48.418L92.227,49.634L100.28,52.142L103.892,53.451L107.199,54.824L110.129,56.287L112.564,57.864L114.352,59.566L115.334,61.387L115.369,63.298L114.364,65.25ZM117.145,77.962L113.683,79.962L109.179,81.688L103.867,83.085L98.015,84.129L91.891,84.828L85.718,85.216L79.656,85.345L73.789,85.268L68.135,85.03L62.667,84.661L57.339,84.174L52.105,83.566L46.937,82.823L41.837,81.921L36.847,80.832L32.055,79.53L27.678,77.978L23.954,76.175L21.036,74.155L19.054,71.967L18.113,69.668L18.276,67.324L19.568,65.005L21.966,62.783L25.402,60.726L29.765,58.897L34.911,57.347L40.666,56.116L46.84,55.229L53.239,54.696L59.67,54.512L65.96,54.661L71.958,55.08L77.604,55.687L82.902,56.444L87.888,57.32L92.614,58.301L97.13,59.383L101.472,60.579L105.64,61.907L109.584,63.395L113.191,65.066L116.288,66.933L118.66,68.987L120.083,71.191L120.369,73.481L119.398,75.77ZM119.221,89.943L115.608,91.981L110.896,93.632L105.303,94.83L99.108,95.548L92.636,95.833L86.15,95.752L79.843,95.391L73.827,94.843L68.135,94.185L52.655,91.963L43.22,90.291L38.746,89.328L34.506,88.235L30.605,86.981L27.188,85.543L24.492,83.89L22.665,82.05L21.801,80.07L21.96,78.008L23.164,75.925L25.393,73.885L28.582,71.951L32.631,70.181L37.405,68.625L42.744,67.322L48.475,66.3L54.415,65.572L60.385,65.139L66.221,64.973L71.846,65.051L77.23,65.346L82.383,65.842L87.338,66.524L92.144,67.394L96.846,68.458L101.47,69.735L105.997,71.247L110.35,73.016L114.377,75.048L117.864,77.329L120.557,79.816L122.207,82.431L122.576,85.065L121.575,87.604ZM117.259,101.58L113.808,103.497L109.331,104.968L104.023,105.935L98.117,106.365L91.873,106.256L85.588,105.723L79.477,104.889L73.669,103.868L63.132,101.647L45.582,97.582L38.263,95.574L35.092,94.465L32.369,93.248L30.204,91.905L28.714,90.432L28.007,88.836L28.177,87.138L29.243,85.386L31.188,83.631L33.957,81.928L37.466,80.324L41.602,78.864L46.227,77.586L51.176,76.522L56.301,75.694L61.48,75.111L66.62,74.775L71.666,74.684L76.592,74.838L81.403,75.235L86.122,75.882L90.782,76.79L95.407,77.975L99.998,79.455L104.513,81.245L108.847,83.346L112.833,85.739L116.251,88.375L118.837,91.168L120.314,93.986L120.564,96.729L119.539,99.293ZM111.313,111.195L108.316,112.841L104.455,114.041L99.884,114.75L94.79,114.945L89.374,114.623L83.858,113.84L78.45,112.751L73.277,111.466L63.88,108.702L48.806,103.786L42.968,101.642L40.55,100.564L38.539,99.446L37.003,98.27L36.011,97.025L35.625,95.712L35.89,94.339L36.827,92.929L38.43,91.509L40.664,90.115L43.466,88.782L46.754,87.549L50.429,86.45L54.392,85.516L58.547,84.771L62.811,84.236L67.121,83.927L71.432,83.859L75.721,84.044L79.983,84.496L84.22,85.231L88.439,86.264L92.637,87.61L96.787,89.277L100.824,91.262L104.639,93.542L108.081,96.073L110.968,98.785L113.058,101.547L114.194,104.255L114.295,106.823L113.329,109.164ZM102.182,117.421L99.866,118.684L96.908,119.562L93.414,120.027L89.511,120.063L85.338,119.671L81.05,118.91L76.786,117.88L72.648,116.661L68.709,115.33L65.01,113.956L58.403,111.273L52.87,108.82L48.458,106.584L46.718,105.512L45.326,104.45L44.317,103.384L43.724,102.305L43.575,101.212L43.888,100.108L44.672,99.002L45.917,97.91L47.601,96.853L49.688,95.854L52.129,94.938L54.87,94.13L57.851,93.457L61.017,92.941L64.316,92.604L67.705,92.467L71.149,92.548L74.623,92.864L78.109,93.432L81.591,94.265L85.049,95.373L88.457,96.759L91.769,98.416L94.92,100.326L97.821,102.452L100.365,104.743L102.433,107.133L103.889,109.517L104.626,111.803L104.594,113.925L103.774,115.818ZM91.209,119.497L89.698,120.318L87.788,120.867L85.537,121.129L83.021,121.112L80.316,120.833L77.503,120.321L74.654,119.613L71.834,118.75L69.096,117.776L66.484,116.731L61.751,114.562L57.802,112.433L54.747,110.42L53.589,109.459L52.694,108.526L52.077,107.616L51.75,106.73L51.721,105.866L51.994,105.028L52.568,104.222L53.436,103.457L54.584,102.744L55.993,102.095L57.638,101.526L59.491,101.052L61.522,100.689L63.699,100.454L65.993,100.361L68.374,100.425L70.816,100.659L73.291,101.072L75.775,101.673L78.242,102.466L80.662,103.45L83,104.617L85.216,105.953L87.261,107.434L89.082,109.03L90.62,110.7L91.816,112.398L92.617,114.073L92.978,115.672L92.869,117.14L92.276,118.428ZM80.046,117.697L79.34,118.09L78.462,118.366L77.431,118.52L75.013,118.466L72.308,117.973L70.918,117.589L68.197,116.611L66.91,116.045L64.584,114.826L62.686,113.559L61.928,112.928L60.84,111.703L60.522,111.118L60.36,110.559L60.356,110.028L60.51,109.531L60.819,109.073L61.278,108.659L62.617,107.986L64.448,107.56L65.515,107.456L67.877,107.491L69.138,107.639L71.732,108.211L73.026,108.634L75.511,109.737L76.66,110.404L78.66,111.91L79.469,112.721L80.122,113.546L80.603,114.366L80.896,115.16L80.99,115.909L80.879,116.593L80.563,117.194ZM69.997,113.62L69.997,113.62ZM69.997,24.416L74.813,26.893L79.252,29.873L83.315,33.103L87.054,36.439L90.531,39.833L93.82,43.269L96.99,46.76L103.206,54.104L106.305,58.105L109.366,62.438L112.3,67.179L114.956,72.361L117.145,77.962L118.652,83.887L119.221,89.943L118.761,95.912L117.259,101.58L114.75,106.737L111.313,111.195L107.071,114.796L102.182,117.421L96.828,118.997L91.209,119.497L85.542,118.984L80.046,117.697L74.846,115.843L69.997,113.62M69.997,24.416L74.072,27.249L77.836,30.563L81.282,34.12L84.449,37.776L87.388,41.482L90.153,45.223L92.8,49.015L97.927,56.931L100.452,61.192L102.928,65.759L105.29,70.69L107.423,76.011L109.179,81.688L110.398,87.622L110.896,93.632L110.545,99.484L109.331,104.968L107.28,109.879L104.455,114.041L100.955,117.304L96.908,119.562L92.464,120.754L87.788,120.867L83.062,119.995L78.462,118.366L74.09,116.177L69.997,113.62M69.997,24.416L73.057,27.439L75.901,30.945L78.51,34.744L80.902,38.67L83.105,42.668L85.151,46.713L87.074,50.807L90.668,59.261L92.372,63.719L94.005,68.407L95.535,73.368L96.9,78.618L98.015,84.129L98.784,89.818L99.108,95.548L98.907,101.138L98.117,106.365L96.732,111.023L94.79,114.945L92.354,117.992L89.511,120.063L86.36,121.101L83.021,121.112L79.623,120.214L76.272,118.552L73.048,116.296L69.997,113.62M69.997,24.416L71.83,27.452L73.552,30.991L75.138,34.909L76.59,39.023L77.915,43.259L79.126,47.57L81.256,56.354L83.076,65.428L84.604,75.009L85.227,80.04L85.718,85.216L86.04,90.485L86.15,95.752L86.009,100.884L85.588,105.723L84.87,110.096L83.858,113.84L82.573,116.812L81.05,118.91L79.341,120.08L77.503,120.321L75.598,119.685L73.682,118.27L71.804,116.201L69.997,113.62M69.997,24.416L70.467,27.285L71.33,34.561L72.369,47.642L73.111,61.518L73.712,80.454L73.827,94.843L73.669,103.868L73.503,107.908L72.99,114.419L72.648,116.661L72.26,118.118L71.834,118.75L71.382,118.56L70.918,117.589L70.453,115.909L69.997,113.62M69.997,24.416L69.053,26.947L68.142,30.072L67.281,33.714L66.484,37.787L65.12,46.809L64.072,56.367L63.329,66L62.865,75.467L62.667,84.661L62.743,93.471L63.132,101.647L63.459,105.354L63.88,108.702L64.398,111.6L65.01,113.956L65.709,115.689L66.484,116.731L67.319,117.042L68.197,116.611L69.096,115.454L69.997,113.62M69.997,24.416L67.682,26.458L65.412,29.146L63.233,32.423L61.184,36.215L59.302,40.441L57.618,45.009L56.158,49.823L54.932,54.78L53.934,59.783L53.16,64.764L52.602,69.668L52.248,74.453L52.086,79.093L52.105,83.566L52.297,87.86L52.655,91.963L53.18,95.862L53.871,99.538L54.734,102.962L55.774,106.095L56.996,108.886L58.403,111.273L59.991,113.188L61.751,114.562L63.664,115.331L65.701,115.447L67.826,114.878L69.997,113.62M69.997,24.416L66.448,25.848L62.915,27.971L59.469,30.749L56.179,34.129L53.112,38.041L50.327,42.403L47.876,47.121L45.8,52.096L44.129,57.225L42.882,62.406L42.065,67.54L41.641,72.539L41.575,77.346L41.837,81.921L42.395,86.24L43.22,90.291L44.289,94.072L45.582,97.582L47.09,100.822L48.806,103.786L50.731,106.46L52.87,108.82L55.227,110.827L57.802,112.433L60.59,113.576L63.575,114.194L66.725,114.225L69.997,113.62M69.997,24.416L65.441,25.156L60.841,26.617L56.289,28.788L51.885,31.638L47.724,35.115L43.896,39.148L40.482,43.654L37.552,48.532L35.161,53.676L33.348,58.973L32.134,64.312L31.524,69.583L31.506,74.686L32.055,79.53L33.088,84.052L34.506,88.235L36.248,92.072L38.263,95.574L40.512,98.757L42.968,101.642L45.618,104.248L48.458,106.584L51.497,108.647L54.747,110.42L58.222,111.865L61.928,112.928L65.861,113.538L69.997,113.62M69.997,24.416L64.738,24.429L59.362,25.175L53.982,26.669L48.716,28.901L43.685,31.843L39.007,35.44L34.791,39.62L31.134,44.289L28.117,49.342L25.799,54.66L24.219,60.123L23.394,65.607L23.315,70.994L23.954,76.175L25.266,81.051L27.188,85.543L29.616,89.6L32.369,93.248L35.362,96.517L38.539,99.446L41.865,102.077L45.326,104.45L48.929,106.594L52.694,108.526L56.653,110.239L60.84,111.703L65.284,112.858L69.997,113.62M69.997,24.416L64.396,23.718L58.616,23.749L52.779,24.545L47.019,26.122L41.47,28.472L36.271,31.56L31.549,35.326L27.422,39.691L23.99,44.551L21.329,49.792L19.493,55.285L18.507,60.898L18.37,66.501L19.054,71.967L20.51,77.183L22.665,82.05L25.433,86.486L28.714,90.432L32.286,93.922L36.011,97.025L39.832,99.799L43.724,102.305L47.688,104.601L51.75,106.73L55.955,108.717L60.36,110.559L65.024,112.219L69.997,113.62M69.997,24.416L64.443,23.074L58.679,22.445L52.826,22.585L47.019,23.53L41.398,25.289L36.106,27.848L31.277,31.162L27.038,35.163L23.495,39.758L20.734,44.835L18.815,50.267L17.768,55.918L17.597,61.649L18.276,67.324L19.755,72.815L21.96,78.008L24.801,82.807L28.177,87.138L31.956,90.956L35.89,94.339L39.879,97.365L43.888,100.108L47.918,102.64L51.994,105.028L56.168,107.318L60.51,109.531L65.096,111.653L69.997,113.62M69.997,24.416L64.88,22.545L59.56,21.367L54.148,20.953L48.768,21.352L43.552,22.589L38.633,24.663L34.138,27.545L30.186,31.177L26.878,35.475L24.296,40.335L22.496,45.634L21.509,51.235L21.34,56.999L21.966,62.783L23.34,68.452L25.393,73.885L28.041,78.973L31.188,83.631L34.726,87.796L38.43,91.509L42.172,94.855L45.917,97.91L49.663,100.753L57.285,106.081L61.278,108.659L65.491,111.189L69.997,113.62M69.997,24.416L65.677,22.169L61.193,20.601L56.641,19.788L52.123,19.786L47.751,20.63L43.634,22.326L39.878,24.854L36.581,28.164L33.825,32.182L31.677,36.809L30.184,41.928L29.37,47.409L29.237,53.112L29.765,58.897L30.915,64.629L32.631,70.181L34.841,75.444L37.466,80.324L40.406,84.758L43.466,88.782L46.569,92.458L49.688,95.854L52.822,99.043L59.24,105.065L62.617,107.986L66.184,110.854L69.997,113.62M69.997,24.416L66.772,21.975L63.444,20.207L60.084,19.188L56.767,18.973L53.572,19.596L50.578,21.066L47.86,23.363L45.484,26.443L43.507,30.236L41.976,34.648L40.918,39.57L40.351,44.877L40.272,50.437L40.666,56.116L41.504,61.785L42.744,67.322L44.338,72.619L46.227,77.586L48.284,82.189L50.429,86.45L52.629,90.413L54.87,94.13L57.152,97.659L59.491,101.052L61.912,104.347L64.448,107.56L67.134,110.672L69.997,113.62M69.997,24.416L68.083,21.976L66.126,20.214L64.168,19.197L62.251,18.974L60.42,19.568L58.717,20.983L57.183,23.196L55.852,26.16L54.754,29.804L53.91,34.042L53.335,38.768L53.035,43.867L53.006,49.217L53.239,54.696L53.716,60.184L54.415,65.572L55.299,70.762L56.301,75.694L57.391,80.36L58.547,84.771L61.017,92.941L63.699,100.454L65.14,104.014L66.664,107.431L68.281,110.659L69.997,113.62M69.997,24.416L69.512,22.17L69.023,20.616L68.538,19.804L68.07,19.767L67.627,20.517L67.22,22.041L66.856,24.309L66.29,30.844L65.968,39.496L65.903,44.367L65.96,54.661L66.406,69.952L66.86,79.432L67.403,88.269L68.028,96.522L68.744,104.148L69.557,110.828L69.997,113.62M69.997,24.416L70.955,22.542L71.91,21.373L72.841,20.941L73.73,21.256L74.558,22.311L75.31,24.079L75.973,26.514L76.533,29.555L76.985,33.127L77.322,37.146L77.542,41.518L77.675,50.868L77.453,60.526L76.942,70.123L76.185,79.481L75.201,88.512L73.987,97.067L72.538,104.813L71.732,108.211L70.881,111.177L69.997,113.62M69.997,24.416L72.312,23.062L74.581,22.422L76.761,22.5L78.81,23.287L80.692,24.752L82.375,26.85L83.835,29.523L85.062,32.68L86.06,36.22L86.833,40.066L87.391,44.151L87.745,48.418L87.907,52.819L87.888,57.32L87.697,61.895L87.338,66.524L86.814,71.193L86.122,75.882L85.26,80.572L84.22,85.231L82.997,89.815L81.591,94.265L80.002,98.511L78.242,102.466L76.33,106.041L74.293,109.144L72.168,111.693L69.997,113.62M69.997,24.416L73.49,23.693L76.861,23.677L80.049,24.349L82.998,25.675L85.669,27.592L88.049,29.991L90.135,32.794L91.929,35.935L93.439,39.354L94.68,43.005L95.661,46.853L96.395,50.875L96.885,55.054L97.13,59.383L97.122,63.855L96.846,68.458L96.282,73.175L95.407,77.975L94.197,82.809L92.637,87.61L90.721,92.293L88.457,96.759L85.869,100.902L83,104.617L79.908,107.809L76.66,110.404L73.331,112.348L69.997,113.62M69.997,24.416L74.416,24.388L78.618,25.046L82.532,26.345L86.117,28.183L89.37,30.434L92.295,33.027L94.907,35.901L97.225,39.013L99.271,42.331L101.06,45.843L102.601,49.547L103.892,53.451L104.915,57.567L105.64,61.907L106.019,66.472L105.997,71.247L105.513,76.194L104.513,81.245L102.955,86.307L100.824,91.262L98.13,95.979L94.92,100.326L91.265,104.178L87.261,107.434L83.021,110.023L78.66,111.91L74.287,113.097L69.997,113.62M69.997,24.416L75.035,25.102L79.764,26.435L84.121,28.32L88.111,30.573L91.753,33.11L95.078,35.869L98.125,38.813L100.931,41.923L103.527,45.2L105.931,48.664L108.141,52.347L110.129,56.287L111.841,60.519L113.191,65.066L114.075,69.922L114.377,75.048L113.991,80.361L112.833,85.739L110.861,91.033L108.081,96.073L104.549,100.694L100.365,104.743L95.669,108.104L90.62,110.7L85.386,112.506L80.122,113.546L74.961,113.885L69.997,113.62M69.997,24.416L75.312,25.785L80.252,27.754L84.782,30.143L88.937,32.776L92.763,35.584L96.316,38.524L99.656,41.578L102.838,44.756L105.899,48.089L108.858,51.627L111.695,55.432L114.352,59.566L116.723,64.079L118.66,68.987L119.994,74.261L120.557,79.816L120.209,85.514L118.837,91.168L116.431,96.575L113.058,101.547L108.828,105.91L103.889,109.517L98.417,112.257L92.617,114.073L86.715,115.012L80.896,115.16L75.296,114.647L69.997,113.62M69.997,24.416L75.235,26.395L80.074,28.921L84.504,31.757L88.577,34.749L92.354,37.84L95.909,41.002L99.313,44.238L102.629,47.579L105.904,51.08L109.149,54.813L112.333,58.861L115.369,63.298L118.111,68.172L120.369,73.481L121.935,79.159L122.576,85.065L122.124,90.991L120.564,96.729L117.927,102.07L114.295,106.823L109.796,110.819L104.594,113.925L98.881,116.048L92.869,117.14L86.793,117.259L80.879,116.593L75.258,115.319L69.997,113.62" fill="none" stroke="#233940" stroke-width=".24"/><text x="12" y="153" fill="#233940" font-size="6">37 / 48</text></g></svg>